<svg width="166" height="40" viewBox="0 0 166 40" fill="none" xmlns="http://www.w3.org/2000/svg">
<g clip-path="url(#clip0_8223_54151)">
<path d="M26.2579 39.8922C26.1819 39.9492 26.0697 39.8796 26.0678 39.7847C25.8077 26.3912 15.4971 14.6123 0.513115 13.9888C0.316694 13.9806 0.199027 13.7379 0.338038 13.5989C4.77516 9.16179 9.21228 4.72467 13.6384 0.276565C13.891 0.023957 14.1107 -0.0529238 14.4512 0.03494C26.1261 3.04427 34.4731 9.84274 38.7675 21.265C39.3056 22.6928 39.6241 24.2085 40.0195 25.6912C40.0635 25.8559 39.9976 26.1415 39.8767 26.2623C35.3408 30.8092 30.8048 35.3562 26.2579 39.8922Z" fill="#6633EE"/>
<path d="M0.1875 20.0019C1.27481 18.8596 2.36213 17.6845 3.50436 16.5532C3.6691 16.3885 4.08646 16.3994 4.36103 16.4544C6.82122 16.9156 9.14961 17.7943 11.3462 18.9914C18.0239 22.6707 22.0326 28.305 23.6032 35.7295C23.6911 36.1468 23.6142 36.4324 23.3067 36.7509C22.2523 37.7833 21.2309 38.8596 20.1875 39.925C20.1655 39.9469 20.1326 39.9579 20.0557 40.0019C19.8251 34.5653 18.1337 29.7328 14.1908 25.8887C10.2699 22.0667 5.48129 20.2764 0.1875 20.0019Z" fill="#6633EE"/>
<path d="M14.0033 39.981C13.7177 30.942 6.46897 26.1644 0 26.0326C0.175728 25.8459 0.285557 25.7032 0.417353 25.5714C1.31796 24.6927 2.24053 23.8251 3.11916 22.9135C3.4816 22.5291 3.82208 22.4412 4.31631 22.584C10.8292 24.4181 15.1785 28.4928 17.2872 34.9618C17.6167 35.9942 17.5508 36.7081 16.6722 37.422C15.7276 38.1798 14.9039 39.1024 14.0033 39.981Z" fill="#6633EE"/>
<path d="M7.98219 39.8904C7.70761 35.2885 4.31387 32.3231 0.0195312 32.0376C0.140344 31.8948 0.239191 31.774 0.338038 31.6641C1.28257 30.7416 2.22711 29.83 3.16066 28.8964C3.40229 28.6438 3.61096 28.6109 3.92947 28.7317C7.59778 30.0606 9.99207 32.6416 11.343 36.244C11.3979 36.3758 11.3759 36.6284 11.2881 36.7163C10.1788 37.7926 9.0695 38.847 7.98219 39.8904Z" fill="#6633EE"/>
</g>
<path d="M162.544 29.5904V21.3736C162.544 20.4467 162.314 19.7244 161.855 19.2067C161.396 18.6806 160.774 18.4176 159.989 18.4176C159.505 18.4176 159.07 18.5303 158.686 18.7558C158.302 18.9729 157.997 19.2986 157.772 19.7328C157.546 20.1586 157.434 20.668 157.434 21.2609L156.093 20.4718C156.085 19.5365 156.294 18.714 156.72 18.0043C157.154 17.2861 157.738 16.7267 158.473 16.3258C159.208 15.925 160.026 15.7246 160.928 15.7246C162.423 15.7246 163.567 16.1755 164.36 17.0774C165.162 17.9709 165.563 19.1483 165.563 20.6096V29.5904H162.544ZM146.273 29.5904V16.0628H148.941V20.2589H149.317V29.5904H146.273ZM154.428 29.5904V21.4112C154.428 20.4676 154.198 19.7328 153.739 19.2067C153.279 18.6806 152.653 18.4176 151.86 18.4176C151.092 18.4176 150.474 18.6806 150.006 19.2067C149.547 19.7328 149.317 20.4175 149.317 21.2609L147.964 20.3591C147.964 19.4823 148.181 18.6932 148.616 17.9917C149.05 17.2903 149.634 16.7392 150.369 16.3384C151.112 15.9292 151.943 15.7246 152.862 15.7246C153.872 15.7246 154.716 15.9417 155.392 16.3759C156.077 16.8018 156.586 17.3863 156.92 18.1295C157.263 18.8643 157.434 19.6952 157.434 20.6221V29.5904H154.428Z" fill="#3D3D3D"/>
<path d="M135.683 29.9823C134.681 29.9823 133.854 29.8153 133.203 29.4813C132.551 29.1472 132.034 28.7214 131.65 28.2036C131.265 27.6859 130.981 27.1348 130.798 26.5503C130.614 25.9658 130.493 25.4146 130.435 24.8969C130.384 24.3708 130.359 23.945 130.359 23.6193V16.0664H133.416V22.5797C133.416 22.9972 133.445 23.469 133.503 23.9951C133.562 24.5128 133.695 25.0138 133.904 25.4981C134.121 25.9741 134.439 26.3666 134.856 26.6755C135.282 26.9845 135.854 27.139 136.572 27.139C136.956 27.139 137.336 27.0763 137.712 26.9511C138.088 26.8258 138.426 26.6129 138.726 26.3123C139.035 26.0033 139.282 25.5816 139.465 25.0472C139.649 24.5128 139.741 23.8364 139.741 23.0181L141.532 23.7821C141.532 24.9345 141.307 25.9783 140.856 26.9135C140.413 27.8488 139.758 28.5961 138.889 29.1556C138.021 29.7067 136.952 29.9823 135.683 29.9823ZM140.104 29.594V25.3979H139.741V16.0664H142.772V29.594H140.104Z" fill="#3D3D3D"/>
<path d="M120.609 29.5963V16.0688H123.277V19.363L122.952 18.9371C123.119 18.4862 123.34 18.077 123.616 17.7096C123.899 17.3338 124.238 17.0249 124.63 16.7827C124.964 16.5573 125.331 16.3819 125.732 16.2566C126.141 16.123 126.559 16.0437 126.985 16.0187C127.411 15.9853 127.824 16.002 128.225 16.0688V18.887C127.824 18.7701 127.361 18.7325 126.835 18.7743C126.317 18.816 125.849 18.9622 125.432 19.2127C125.014 19.4381 124.672 19.7262 124.405 20.0769C124.146 20.4276 123.954 20.8285 123.828 21.2794C123.703 21.7219 123.641 22.2021 123.641 22.7198V29.5963H120.609Z" fill="#3D3D3D"/>
<path d="M117.697 29.5958C116.804 29.7628 115.927 29.8338 115.067 29.8087C114.215 29.792 113.451 29.6375 112.775 29.3453C112.098 29.0447 111.585 28.5729 111.234 27.9299C110.925 27.3454 110.762 26.7483 110.746 26.1387C110.729 25.5292 110.721 24.8403 110.721 24.072V12.3105H113.727V23.8967C113.727 24.4394 113.731 24.9154 113.739 25.3246C113.756 25.7337 113.844 26.0678 114.002 26.3266C114.303 26.8276 114.783 27.1074 115.443 27.1658C116.102 27.2243 116.854 27.1909 117.697 27.0656V29.5958ZM108.266 18.4355V16.0682H117.697V18.4355H108.266Z" fill="#3D3D3D"/>
<path d="M101.235 29.9686C99.8409 29.9686 98.6509 29.6596 97.6656 29.0417C96.6803 28.4154 95.9246 27.5637 95.3985 26.4865C94.8808 25.4093 94.6177 24.1901 94.6094 22.829C94.6177 21.4428 94.8891 20.2153 95.4235 19.1465C95.9663 18.0693 96.7345 17.2259 97.7282 16.6163C98.7219 15.9984 99.9035 15.6895 101.273 15.6895C102.809 15.6895 104.108 16.0777 105.168 16.8543C106.237 17.6226 106.935 18.6747 107.26 20.0108L104.254 20.8249C104.02 20.0984 103.632 19.5348 103.089 19.134C102.546 18.7248 101.928 18.5202 101.235 18.5202C100.45 18.5202 99.8033 18.7081 99.2939 19.0839C98.7846 19.4513 98.4088 19.9607 98.1666 20.612C97.9245 21.2633 97.8034 22.0023 97.8034 22.829C97.8034 24.115 98.0915 25.1546 98.6677 25.9479C99.2438 26.7411 100.1 27.1378 101.235 27.1378C102.037 27.1378 102.667 26.9541 103.127 26.5867C103.594 26.2193 103.945 25.689 104.179 24.9959L107.26 25.6848C106.843 27.0626 106.112 28.1231 105.068 28.8663C104.024 29.6011 102.747 29.9686 101.235 29.9686Z" fill="#3D3D3D"/>
<path d="M86.4367 29.9686C85.0673 29.9686 83.8648 29.6721 82.8294 29.0792C81.7939 28.4864 80.9839 27.6639 80.3994 26.6117C79.8232 25.5596 79.5352 24.3488 79.5352 22.9793C79.5352 21.5013 79.8191 20.2195 80.3869 19.134C80.9547 18.0401 81.7438 17.1925 82.7542 16.5913C83.7646 15.9901 84.9337 15.6895 86.2614 15.6895C87.6642 15.6895 88.8542 16.0193 89.8311 16.679C90.8165 17.3303 91.5471 18.253 92.0231 19.4471C92.4991 20.6412 92.6786 22.0482 92.5617 23.6682H89.5681V22.566C89.5598 21.0963 89.3009 20.0233 88.7915 19.3469C88.2822 18.6705 87.4805 18.3323 86.3866 18.3323C85.1508 18.3323 84.2322 18.7165 83.631 19.4847C83.0298 20.2446 82.7292 21.3593 82.7292 22.829C82.7292 24.1985 83.0298 25.259 83.631 26.0105C84.2322 26.762 85.109 27.1378 86.2614 27.1378C87.0046 27.1378 87.6434 26.975 88.1778 26.6493C88.7205 26.3153 89.1381 25.8351 89.4303 25.2089L92.4114 26.1107C91.8937 27.3298 91.092 28.2776 90.0065 28.954C88.9293 29.6304 87.7394 29.9686 86.4367 29.9686ZM81.7772 23.6682V21.3886H91.0837V23.6682H81.7772Z" fill="#3D3D3D"/>
<path d="M71.3539 29.9686C70.0346 29.9686 68.9282 29.6554 68.0347 29.0291C67.1412 28.4029 66.469 27.5511 66.0181 26.4739C65.5671 25.3884 65.3417 24.1734 65.3417 22.829C65.3417 21.4679 65.5671 20.2487 66.0181 19.1716C66.469 18.0944 67.1286 17.2468 67.9971 16.6289C68.8739 16.0026 69.9552 15.6895 71.2412 15.6895C72.5188 15.6895 73.6252 16.0026 74.5605 16.6289C75.5041 17.2468 76.2347 18.0944 76.7524 19.1716C77.2702 20.2404 77.529 21.4595 77.529 22.829C77.529 24.1818 77.2743 25.3967 76.765 26.4739C76.2556 27.5511 75.5375 28.4029 74.6106 29.0291C73.6837 29.6554 72.5981 29.9686 71.3539 29.9686ZM64.8281 35.6051V16.0652H67.4961V25.5596H67.8718V35.6051H64.8281ZM70.8905 27.263C71.6754 27.263 72.3226 27.0668 72.8319 26.6743C73.3413 26.2819 73.7171 25.7516 73.9592 25.0836C74.2097 24.4072 74.335 23.6557 74.335 22.829C74.335 22.0107 74.2097 21.2675 73.9592 20.5995C73.7087 19.9231 73.3204 19.3887 72.7944 18.9962C72.2683 18.5954 71.6003 18.395 70.7903 18.395C70.022 18.395 69.3958 18.5829 68.9114 18.9586C68.4271 19.326 68.0681 19.8438 67.8343 20.5118C67.6088 21.1715 67.4961 21.9439 67.4961 22.829C67.4961 23.7058 67.6088 24.4782 67.8343 25.1462C68.0681 25.8143 68.4313 26.3362 68.924 26.7119C69.425 27.0793 70.0805 27.263 70.8905 27.263Z" fill="#3D3D3D"/>
<path d="M55.0665 29.9686C53.7472 29.9686 52.5573 29.739 51.4968 29.2797C50.4446 28.8204 49.5762 28.1649 48.8914 27.3132C48.2151 26.4531 47.785 25.4343 47.6013 24.2569L50.7327 23.781C50.9999 24.8498 51.5469 25.6765 52.3735 26.261C53.2086 26.8456 54.1689 27.1378 55.2544 27.1378C55.8974 27.1378 56.5028 27.0376 57.0706 26.8372C57.6384 26.6368 58.0977 26.3445 58.4484 25.9604C58.8075 25.5763 58.987 25.1045 58.987 24.545C58.987 24.2945 58.9453 24.0649 58.8618 23.8561C58.7783 23.639 58.653 23.447 58.486 23.28C58.3273 23.1129 58.1186 22.9626 57.8597 22.829C57.6092 22.6871 57.317 22.566 56.9829 22.4658L52.3234 21.088C51.9226 20.9711 51.4884 20.8166 51.0208 20.6245C50.5615 20.4241 50.1231 20.1527 49.7056 19.8104C49.2964 19.4597 48.9583 19.0171 48.691 18.4827C48.4322 17.9399 48.3027 17.2719 48.3027 16.4786C48.3027 15.3179 48.595 14.3451 49.1795 13.5601C49.7724 12.7669 50.5657 12.174 51.5594 11.7815C52.5614 11.389 53.672 11.197 54.8912 11.2053C56.127 11.2137 57.2293 11.4266 58.1979 11.8441C59.1666 12.2533 59.9765 12.8504 60.6279 13.6353C61.2792 14.4202 61.7385 15.368 62.0057 16.4786L58.7616 17.0422C58.628 16.4076 58.3691 15.869 57.985 15.4264C57.6092 14.9755 57.1458 14.6332 56.5947 14.3994C56.0519 14.1655 55.4715 14.0403 54.8536 14.0236C54.2524 14.0152 53.6929 14.1071 53.1752 14.2991C52.6658 14.4829 52.2525 14.7501 51.9352 15.1008C51.6262 15.4515 51.4717 15.8607 51.4717 16.3283C51.4717 16.7709 51.6053 17.1341 51.8725 17.418C52.1397 17.6936 52.4696 17.9149 52.862 18.0819C53.2629 18.2405 53.6679 18.3741 54.077 18.4827L57.3086 19.3845C57.7512 19.5014 58.248 19.6601 58.7991 19.8605C59.3503 20.0609 59.8805 20.3406 60.3899 20.6997C60.8993 21.0588 61.3168 21.5306 61.6424 22.1151C61.9765 22.6996 62.1435 23.4428 62.1435 24.3446C62.1435 25.2799 61.9472 26.1024 61.5548 26.8122C61.1706 27.5136 60.6487 28.0981 59.9891 28.5657C59.3294 29.0333 58.5737 29.3841 57.7219 29.6179C56.8786 29.8517 55.9934 29.9686 55.0665 29.9686Z" fill="#3D3D3D"/>
<defs>
<clipPath id="clip0_8223_54151">
<rect width="40.0329" height="40" fill="white"/>
</clipPath>
</defs>
</svg>
